<svg width="32" height="32" viewBox="0 0 32 32" fill="none" xmlns="http://www.w3.org/2000/svg">
<path d="M17.336 8.01328C21.5613 8.01328 23.9573 10.8093 24.3067 14.1866H24.4133C25.059 14.1857 25.6986 14.3121 26.2954 14.5584C26.8923 14.8047 27.4348 15.1662 27.8919 15.6222C28.349 16.0782 28.7118 16.6198 28.9596 17.2161C29.2074 17.8124 29.3353 18.4516 29.336 19.0973C29.3351 19.7429 29.2071 20.3819 28.9592 20.978C28.7114 21.5741 28.3485 22.1156 27.8914 22.5715C27.4343 23.0273 26.8919 23.3887 26.2951 23.635C25.6983 23.8812 25.0589 24.0075 24.4133 24.0066L23.5867 24.0053L21.52 27.5039C21.3932 27.7232 21.1879 27.8862 20.9456 27.96C20.7034 28.0338 20.4421 28.0128 20.2146 27.9015C19.9871 27.7901 19.8104 27.5966 19.7201 27.3599C19.6297 27.1233 19.6326 26.8612 19.728 26.6266L19.788 26.5039L21.2787 24.0053H18.4307L16.3627 27.5039C16.2359 27.7232 16.0306 27.8862 15.7883 27.96C15.546 28.0338 15.2848 28.0128 15.0573 27.9015C14.8298 27.7901 14.6531 27.5966 14.5627 27.3599C14.4724 27.1233 14.4753 26.8612 14.5707 26.6266L14.6307 26.5039L16.1213 24.0053H13.2733L11.2053 27.5039C11.0785 27.7232 10.8733 27.8862 10.631 27.96C10.3887 28.0338 10.1274 28.0128 9.89994 27.9015C9.67246 27.7901 9.49572 27.5966 9.4054 27.3599C9.31508 27.1233 9.31792 26.8612 9.41333 26.6266L9.47333 26.5039L10.9627 24.0053L10.26 24.0066C9.61442 24.0075 8.97499 23.8812 8.37822 23.635C7.78145 23.3887 7.23902 23.0273 6.78191 22.5715C6.3248 22.1156 5.96195 21.5741 5.71409 20.978C5.46623 20.3819 5.33821 19.7429 5.33733 19.0973C5.33803 18.4516 5.46593 17.8124 5.71371 17.2161C5.96149 16.6198 6.32431 16.0782 6.78144 15.6222C7.23857 15.1662 7.78106 14.8047 8.37791 14.5584C8.97477 14.3121 9.61431 14.1857 10.26 14.1866H10.3667C10.7173 10.7866 13.112 8.01328 17.336 8.01328ZM17.336 10.0106C14.5747 10.0106 12.1667 12.1879 12.1667 15.1959C12.1667 15.6719 11.7413 16.0466 11.2547 16.0466H10.3347C8.65333 16.0466 7.28933 17.3813 7.28933 19.0279C7.28933 20.6746 8.65333 22.0106 10.3347 22.0106H24.3387C26.0187 22.0106 27.3827 20.6746 27.3827 19.0279C27.3827 17.3813 26.02 16.0466 24.3387 16.0466H23.4173C22.9307 16.0466 22.5053 15.6733 22.5053 15.1959C22.5053 12.1493 20.0973 10.0093 17.336 10.0093V10.0106ZM5.824 13.5546C5.91624 13.7779 5.92452 14.027 5.84731 14.256C5.7701 14.4849 5.61263 14.6781 5.404 14.7999L5.28267 14.8613L4.048 15.3719C3.81399 15.4686 3.55201 15.4729 3.31494 15.384C3.07787 15.2951 2.88337 15.1195 2.77068 14.8928C2.65798 14.666 2.6355 14.405 2.70775 14.1623C2.78001 13.9197 2.94163 13.7134 3.16 13.5853L3.28267 13.5239L4.51733 13.0133C4.63867 12.963 4.76873 12.9371 4.90007 12.9371C5.03141 12.9371 5.16146 12.963 5.2828 13.0133C5.40414 13.0636 5.51439 13.1372 5.60725 13.2301C5.70011 13.323 5.77376 13.4333 5.824 13.5546ZM14.4733 7.10928L14.244 7.18661C13.5505 7.42967 12.8951 7.76995 12.2973 8.19728C11.6554 7.98875 10.9645 7.98489 10.3202 8.18623C9.67595 8.38757 9.11019 8.78416 8.70121 9.32113C8.29222 9.8581 8.06022 10.5089 8.03732 11.1835C8.01441 11.8581 8.20172 12.5231 8.57333 13.0866C7.9235 13.2691 7.30815 13.5574 6.752 13.9399C6.14089 12.8896 5.91263 11.6599 6.10604 10.4602C6.29946 9.26049 6.90261 8.16487 7.81286 7.35978C8.7231 6.55469 9.8842 6.08988 11.0986 6.04445C12.3129 5.99902 13.5055 6.37578 14.4733 7.11061V7.10928ZM3.92133 7.15061L4.06267 7.19728L5.29733 7.70928C5.5295 7.8066 5.71642 7.9879 5.82077 8.21699C5.92513 8.44609 5.93924 8.70611 5.86029 8.94515C5.78134 9.18418 5.61514 9.38465 5.39487 9.50652C5.17459 9.6284 4.91646 9.66271 4.672 9.60261L4.53333 9.55861L3.29867 9.04661C3.06712 8.949 2.8808 8.7678 2.77679 8.53905C2.67278 8.3103 2.65871 8.05078 2.73736 7.81212C2.81602 7.57347 2.98164 7.37317 3.20128 7.25109C3.42091 7.12901 3.67846 7.09409 3.92267 7.15328L3.92133 7.15061ZM9.008 3.16928L9.06933 3.29061L9.58 4.52661C9.6753 4.76042 9.67863 5.02162 9.58932 5.25778C9.50001 5.49394 9.32467 5.68757 9.09851 5.79981C8.87234 5.91205 8.61209 5.93458 8.37 5.86289C8.12791 5.79119 7.92191 5.63057 7.79333 5.41328L7.732 5.29194L7.22133 4.05594C7.12604 3.82214 7.12271 3.56094 7.21202 3.32478C7.30133 3.08862 7.47667 2.89498 7.70283 2.78274C7.92899 2.67051 8.18924 2.64797 8.43133 2.71967C8.67342 2.79137 8.87943 2.95198 9.008 3.16928ZM14.8133 2.74528C15.0344 2.83713 15.2152 3.00525 15.3229 3.21909C15.4305 3.43294 15.4579 3.67831 15.4 3.91061L15.3533 4.05061L14.8427 5.28661C14.7453 5.51878 14.564 5.7057 14.335 5.81005C14.1059 5.9144 13.8458 5.92851 13.6068 5.84956C13.3678 5.77061 13.1673 5.60441 13.0454 5.38414C12.9235 5.16387 12.8892 4.90574 12.9493 4.66128L12.9947 4.52128L13.5067 3.28528C13.6084 3.04044 13.8032 2.84602 14.0482 2.74476C14.2932 2.64349 14.5684 2.64368 14.8133 2.74528Z" fill="#1B2541"/>
</svg>
