<svg width="17" height="16" viewBox="0 0 17 16" fill="none" xmlns="http://www.w3.org/2000/svg">
<path fill-rule="evenodd" clip-rule="evenodd" d="M17 8.00004C17 8.26526 16.8946 8.51961 16.7071 8.70715C16.5196 8.89469 16.2652 9.00004 16 9.00004H4.414L8.708 13.292C8.80098 13.385 8.87473 13.4954 8.92505 13.6169C8.97537 13.7384 9.00127 13.8686 9.00127 14C9.00127 14.1315 8.97537 14.2617 8.92505 14.3832C8.87473 14.5047 8.80098 14.6151 8.708 14.708C8.61503 14.801 8.50465 14.8748 8.38317 14.9251C8.26169 14.9754 8.13149 15.0013 8 15.0013C7.86852 15.0013 7.73832 14.9754 7.61684 14.9251C7.49536 14.8748 7.38498 14.801 7.292 14.708L1.292 8.70804C1.19888 8.61515 1.12499 8.5048 1.07458 8.38331C1.02416 8.26182 0.998215 8.13158 0.998215 8.00004C0.998215 7.86851 1.02416 7.73827 1.07458 7.61678C1.12499 7.49529 1.19888 7.38493 1.292 7.29204L7.292 1.29204C7.47978 1.10427 7.73445 0.998779 8 0.998779C8.26556 0.998779 8.52023 1.10427 8.708 1.29204C8.89578 1.47982 9.00127 1.73449 9.00127 2.00004C9.00127 2.26559 8.89578 2.52027 8.708 2.70804L4.414 7.00004H16C16.2652 7.00004 16.5196 7.1054 16.7071 7.29294C16.8946 7.48047 17 7.73483 17 8.00004Z" fill="white"/>
</svg>
