<svg width="28" height="27" viewBox="0 0 28 27" fill="none" xmlns="http://www.w3.org/2000/svg">
<path d="M15.336 6.01328C19.5613 6.01328 21.9573 8.80928 22.3067 12.1866H22.4133C23.059 12.1857 23.6986 12.3121 24.2954 12.5584C24.8923 12.8047 25.4348 13.1662 25.8919 13.6222C26.349 14.0782 26.7118 14.6198 26.9596 15.2161C27.2074 15.8124 27.3353 16.4516 27.336 17.0973C27.3351 17.7429 27.2071 18.3819 26.9592 18.978C26.7114 19.5741 26.3485 20.1156 25.8914 20.5715C25.4343 21.0273 24.8919 21.3887 24.2951 21.635C23.6983 21.8812 23.0589 22.0075 22.4133 22.0066L21.5867 22.0053L19.52 25.5039C19.3932 25.7232 19.1879 25.8862 18.9456 25.96C18.7034 26.0338 18.4421 26.0128 18.2146 25.9015C17.9871 25.7901 17.8104 25.5966 17.7201 25.3599C17.6297 25.1233 17.6326 24.8612 17.728 24.6266L17.788 24.5039L19.2787 22.0053H16.4307L14.3627 25.5039C14.2359 25.7232 14.0306 25.8862 13.7883 25.96C13.546 26.0338 13.2848 26.0128 13.0573 25.9015C12.8298 25.7901 12.6531 25.5966 12.5627 25.3599C12.4724 25.1233 12.4753 24.8612 12.5707 24.6266L12.6307 24.5039L14.1213 22.0053H11.2733L9.20534 25.5039C9.07854 25.7232 8.87328 25.8862 8.63098 25.96C8.38869 26.0338 8.12742 26.0128 7.89994 25.9015C7.67246 25.7901 7.49572 25.5966 7.4054 25.3599C7.31508 25.1233 7.31792 24.8612 7.41333 24.6266L7.47333 24.5039L8.96267 22.0053L8.26 22.0066C7.61442 22.0075 6.97499 21.8812 6.37822 21.635C5.78145 21.3887 5.23902 21.0273 4.78191 20.5715C4.3248 20.1156 3.96195 19.5741 3.71409 18.978C3.46623 18.3819 3.33821 17.7429 3.33733 17.0973C3.33803 16.4516 3.46593 15.8124 3.71371 15.2161C3.96149 14.6198 4.32431 14.0782 4.78144 13.6222C5.23857 13.1662 5.78106 12.8047 6.37791 12.5584C6.97477 12.3121 7.61431 12.1857 8.26 12.1866H8.36667C8.71733 8.78661 11.112 6.01328 15.336 6.01328V6.01328ZM15.336 8.01061C12.5747 8.01061 10.1667 10.1879 10.1667 13.1959C10.1667 13.6719 9.74133 14.0466 9.25467 14.0466H8.33467C6.65333 14.0466 5.28933 15.3813 5.28933 17.0279C5.28933 18.6746 6.65333 20.0106 8.33467 20.0106H22.3387C24.0187 20.0106 25.3827 18.6746 25.3827 17.0279C25.3827 15.3813 24.02 14.0466 22.3387 14.0466H21.4173C20.9307 14.0466 20.5053 13.6733 20.5053 13.1959C20.5053 10.1493 18.0973 8.00928 15.336 8.00928V8.01061ZM3.824 11.5546C3.91624 11.7779 3.92452 12.027 3.84731 12.256C3.7701 12.4849 3.61263 12.6781 3.404 12.7999L3.28267 12.8613L2.048 13.3719C1.81399 13.4686 1.55201 13.4729 1.31494 13.384C1.07787 13.2951 0.883368 13.1195 0.770675 12.8928C0.657983 12.666 0.635497 12.405 0.707755 12.1623C0.780012 11.9197 0.941634 11.7134 1.16 11.5853L1.28267 11.5239L2.51733 11.0133C2.63867 10.963 2.76873 10.9371 2.90007 10.9371C3.03141 10.9371 3.16146 10.963 3.2828 11.0133C3.40414 11.0636 3.51439 11.1372 3.60725 11.2301C3.70011 11.323 3.77376 11.4333 3.824 11.5546V11.5546ZM12.4733 5.10928L12.244 5.18661C11.5505 5.42967 10.8951 5.76995 10.2973 6.19728C9.65537 5.98875 8.96446 5.98489 8.32021 6.18623C7.67595 6.38757 7.11019 6.78416 6.70121 7.32113C6.29222 7.8581 6.06022 8.5089 6.03732 9.1835C6.01441 9.85809 6.20172 10.5231 6.57333 11.0866C5.9235 11.2691 5.30815 11.5574 4.752 11.9399C4.14089 10.8896 3.91263 9.65991 4.10604 8.4602C4.29946 7.26049 4.90261 6.16487 5.81286 5.35978C6.7231 4.55469 7.8842 4.08988 9.09855 4.04445C10.3129 3.99902 11.5055 4.37578 12.4733 5.11061V5.10928ZM1.92133 5.15061L2.06267 5.19728L3.29733 5.70928C3.5295 5.8066 3.71642 5.9879 3.82077 6.21699C3.92513 6.44609 3.93924 6.70611 3.86029 6.94515C3.78134 7.18418 3.61514 7.38465 3.39487 7.50652C3.17459 7.6284 2.91646 7.66271 2.672 7.60261L2.53333 7.55861L1.29867 7.04661C1.06712 6.949 0.880801 6.7678 0.776793 6.53905C0.672784 6.3103 0.658707 6.05078 0.737363 5.81212C0.816018 5.57347 0.981641 5.37317 1.20128 5.25109C1.42091 5.12901 1.67846 5.09409 1.92267 5.15328L1.92133 5.15061ZM7.008 1.16928L7.06933 1.29061L7.58 2.52661C7.6753 2.76042 7.67863 3.02162 7.58932 3.25778C7.50001 3.49394 7.32467 3.68757 7.09851 3.79981C6.87234 3.91205 6.61209 3.93458 6.37 3.86289C6.12791 3.79119 5.92191 3.63057 5.79333 3.41328L5.732 3.29194L5.22133 2.05594C5.12604 1.82214 5.12271 1.56094 5.21202 1.32478C5.30133 1.08862 5.47667 0.894981 5.70283 0.782743C5.92899 0.670505 6.18924 0.647973 6.43133 0.719669C6.67342 0.791365 6.87943 0.951983 7.008 1.16928V1.16928ZM12.8133 0.745278C13.0344 0.837128 13.2152 1.00525 13.3229 1.21909C13.4305 1.43294 13.4579 1.67831 13.4 1.91061L13.3533 2.05061L12.8427 3.28661C12.7453 3.51878 12.564 3.7057 12.335 3.81005C12.1059 3.9144 11.8458 3.92851 11.6068 3.84956C11.3678 3.77061 11.1673 3.60441 11.0454 3.38414C10.9235 3.16387 10.8892 2.90574 10.9493 2.66128L10.9947 2.52128L11.5067 1.28528C11.6084 1.04044 11.8032 0.846018 12.0482 0.744756C12.2932 0.643495 12.5684 0.643682 12.8133 0.745278Z" fill="#1B2541"/>
</svg>
