<svg width="12" height="15" viewBox="0 0 12 15" fill="none" xmlns="http://www.w3.org/2000/svg">
<path d="M6 3.5C5.50555 3.5 5.0222 3.64662 4.61107 3.92133C4.19995 4.19603 3.87952 4.58648 3.6903 5.04329C3.50108 5.50011 3.45157 6.00277 3.54804 6.48773C3.6445 6.97268 3.8826 7.41814 4.23223 7.76777C4.58186 8.1174 5.02732 8.3555 5.51227 8.45196C5.99723 8.54843 6.49989 8.49892 6.95671 8.3097C7.41352 8.12048 7.80397 7.80005 8.07867 7.38893C8.35338 6.9778 8.5 6.49445 8.5 6C8.49924 5.33719 8.2356 4.70175 7.76693 4.23307C7.29825 3.7644 6.66281 3.50076 6 3.5ZM6 7.5C5.70333 7.5 5.41332 7.41203 5.16664 7.2472C4.91997 7.08238 4.72771 6.84811 4.61418 6.57403C4.50065 6.29994 4.47094 5.99834 4.52882 5.70736C4.5867 5.41639 4.72956 5.14912 4.93934 4.93934C5.14912 4.72956 5.41639 4.5867 5.70736 4.52882C5.99834 4.47094 6.29994 4.50065 6.57403 4.61418C6.84811 4.72771 7.08238 4.91997 7.2472 5.16664C7.41203 5.41332 7.5 5.70333 7.5 6C7.49955 6.39769 7.34138 6.77896 7.06017 7.06017C6.77896 7.34137 6.39769 7.49955 6 7.5ZM6 0.5C4.54182 0.501654 3.14383 1.08165 2.11274 2.11274C1.08165 3.14383 0.501654 4.54182 0.5 6C0.5 7.96225 1.40687 10.0424 3.12269 12.0156C3.89481 12.9072 4.76367 13.7101 5.71325 14.4096C5.7973 14.4685 5.89741 14.5 6 14.5C6.10259 14.5 6.2027 14.4685 6.28675 14.4096C7.23633 13.7101 8.10519 12.9072 8.87731 12.0156C10.5931 10.0424 11.5 7.96231 11.5 6C11.4983 4.54182 10.9184 3.14383 9.88726 2.11274C8.85617 1.08165 7.45818 0.501654 6 0.5ZM6 13.3737C4.96669 12.5632 1.5 9.57694 1.5 6C1.5 4.80653 1.97411 3.66193 2.81802 2.81802C3.66193 1.97411 4.80653 1.5 6 1.5C7.19347 1.5 8.33807 1.97411 9.18198 2.81802C10.0259 3.66193 10.5 4.80653 10.5 6C10.5 9.577 7.03312 12.5634 6 13.3737Z" fill="#1B2541"/>
</svg>
